<mxfile host="app.diagrams.net" modified="2023-07-21T02:01:56.581Z" agent="Mozilla/5.0 (Windows NT 10.0; Win64; x64) AppleWebKit/537.36 (KHTML, like Gecko) Chrome/115.0.0.0 Safari/537.36" etag="ePJ6XBxYX8ZTrQIqFdsc" version="21.6.2" type="github">
  <diagram name="Page-1" id="10a91c8b-09ff-31b1-d368-03940ed4cc9e">
    <mxGraphModel dx="1434" dy="694" grid="1" gridSize="10" guides="1" tooltips="1" connect="1" arrows="1" fold="1" page="1" pageScale="1" pageWidth="1100" pageHeight="850" background="none" math="0" shadow="0">
      <root>
        <mxCell id="0" />
        <mxCell id="1" parent="0" />
        <mxCell id="9O0J8Gs0uglvmjFiros7-19" value="SDE" style="ellipse;whiteSpace=wrap;html=1;aspect=fixed;" vertex="1" parent="1">
          <mxGeometry x="50" y="230" width="80" height="80" as="geometry" />
        </mxCell>
        <mxCell id="9O0J8Gs0uglvmjFiros7-20" value="n1" style="ellipse;whiteSpace=wrap;html=1;aspect=fixed;" vertex="1" parent="1">
          <mxGeometry x="200" y="230" width="80" height="80" as="geometry" />
        </mxCell>
        <mxCell id="9O0J8Gs0uglvmjFiros7-21" value="n2" style="ellipse;whiteSpace=wrap;html=1;aspect=fixed;" vertex="1" parent="1">
          <mxGeometry x="370" y="110" width="80" height="80" as="geometry" />
        </mxCell>
        <mxCell id="9O0J8Gs0uglvmjFiros7-22" value="n3" style="ellipse;whiteSpace=wrap;html=1;aspect=fixed;" vertex="1" parent="1">
          <mxGeometry x="370" y="320" width="80" height="80" as="geometry" />
        </mxCell>
        <mxCell id="9O0J8Gs0uglvmjFiros7-23" value="" style="endArrow=classic;html=1;rounded=0;exitX=1;exitY=0.5;exitDx=0;exitDy=0;entryX=0;entryY=0.5;entryDx=0;entryDy=0;" edge="1" parent="1" source="9O0J8Gs0uglvmjFiros7-19" target="9O0J8Gs0uglvmjFiros7-20">
          <mxGeometry width="50" height="50" relative="1" as="geometry">
            <mxPoint x="240" y="450" as="sourcePoint" />
            <mxPoint x="290" y="400" as="targetPoint" />
          </mxGeometry>
        </mxCell>
        <mxCell id="9O0J8Gs0uglvmjFiros7-24" value="" style="endArrow=classic;html=1;rounded=0;entryX=0.025;entryY=0.663;entryDx=0;entryDy=0;entryPerimeter=0;" edge="1" parent="1" target="9O0J8Gs0uglvmjFiros7-21">
          <mxGeometry width="50" height="50" relative="1" as="geometry">
            <mxPoint x="280" y="270" as="sourcePoint" />
            <mxPoint x="330" y="220" as="targetPoint" />
          </mxGeometry>
        </mxCell>
        <mxCell id="9O0J8Gs0uglvmjFiros7-25" value="" style="endArrow=classic;html=1;rounded=0;entryX=0;entryY=0.5;entryDx=0;entryDy=0;" edge="1" parent="1" target="9O0J8Gs0uglvmjFiros7-22">
          <mxGeometry width="50" height="50" relative="1" as="geometry">
            <mxPoint x="280" y="270" as="sourcePoint" />
            <mxPoint x="400" y="310" as="targetPoint" />
          </mxGeometry>
        </mxCell>
        <mxCell id="9O0J8Gs0uglvmjFiros7-26" value="SDEVICE" style="ellipse;whiteSpace=wrap;html=1;aspect=fixed;" vertex="1" parent="1">
          <mxGeometry x="600" y="245" width="80" height="80" as="geometry" />
        </mxCell>
        <mxCell id="9O0J8Gs0uglvmjFiros7-27" value="n1" style="ellipse;whiteSpace=wrap;html=1;aspect=fixed;" vertex="1" parent="1">
          <mxGeometry x="750" y="165" width="80" height="80" as="geometry" />
        </mxCell>
        <mxCell id="9O0J8Gs0uglvmjFiros7-28" value="n2" style="ellipse;whiteSpace=wrap;html=1;aspect=fixed;" vertex="1" parent="1">
          <mxGeometry x="910" y="70" width="80" height="80" as="geometry" />
        </mxCell>
        <mxCell id="9O0J8Gs0uglvmjFiros7-29" value="n3" style="ellipse;whiteSpace=wrap;html=1;aspect=fixed;" vertex="1" parent="1">
          <mxGeometry x="910" y="220" width="80" height="80" as="geometry" />
        </mxCell>
        <mxCell id="9O0J8Gs0uglvmjFiros7-30" value="" style="endArrow=classic;html=1;rounded=0;exitX=1;exitY=0.5;exitDx=0;exitDy=0;entryX=0;entryY=0.5;entryDx=0;entryDy=0;" edge="1" source="9O0J8Gs0uglvmjFiros7-26" target="9O0J8Gs0uglvmjFiros7-27" parent="1">
          <mxGeometry width="50" height="50" relative="1" as="geometry">
            <mxPoint x="790" y="465" as="sourcePoint" />
            <mxPoint x="840" y="415" as="targetPoint" />
          </mxGeometry>
        </mxCell>
        <mxCell id="9O0J8Gs0uglvmjFiros7-31" value="" style="endArrow=classic;html=1;rounded=0;entryX=0.025;entryY=0.663;entryDx=0;entryDy=0;entryPerimeter=0;exitX=1;exitY=0.5;exitDx=0;exitDy=0;" edge="1" target="9O0J8Gs0uglvmjFiros7-28" parent="1" source="9O0J8Gs0uglvmjFiros7-27">
          <mxGeometry width="50" height="50" relative="1" as="geometry">
            <mxPoint x="830" y="285" as="sourcePoint" />
            <mxPoint x="880" y="235" as="targetPoint" />
          </mxGeometry>
        </mxCell>
        <mxCell id="9O0J8Gs0uglvmjFiros7-32" value="" style="endArrow=classic;html=1;rounded=0;entryX=0;entryY=0.5;entryDx=0;entryDy=0;exitX=1;exitY=0.5;exitDx=0;exitDy=0;" edge="1" target="9O0J8Gs0uglvmjFiros7-29" parent="1" source="9O0J8Gs0uglvmjFiros7-27">
          <mxGeometry width="50" height="50" relative="1" as="geometry">
            <mxPoint x="830" y="285" as="sourcePoint" />
            <mxPoint x="950" y="325" as="targetPoint" />
          </mxGeometry>
        </mxCell>
        <mxCell id="9O0J8Gs0uglvmjFiros7-33" value="n4" style="ellipse;whiteSpace=wrap;html=1;aspect=fixed;" vertex="1" parent="1">
          <mxGeometry x="750" y="415" width="80" height="80" as="geometry" />
        </mxCell>
        <mxCell id="9O0J8Gs0uglvmjFiros7-34" value="n5" style="ellipse;whiteSpace=wrap;html=1;aspect=fixed;" vertex="1" parent="1">
          <mxGeometry x="910" y="320" width="80" height="80" as="geometry" />
        </mxCell>
        <mxCell id="9O0J8Gs0uglvmjFiros7-35" value="n6" style="ellipse;whiteSpace=wrap;html=1;aspect=fixed;" vertex="1" parent="1">
          <mxGeometry x="910" y="470" width="80" height="80" as="geometry" />
        </mxCell>
        <mxCell id="9O0J8Gs0uglvmjFiros7-36" value="" style="endArrow=classic;html=1;rounded=0;entryX=0.025;entryY=0.663;entryDx=0;entryDy=0;entryPerimeter=0;exitX=1;exitY=0.5;exitDx=0;exitDy=0;" edge="1" source="9O0J8Gs0uglvmjFiros7-33" target="9O0J8Gs0uglvmjFiros7-34" parent="1">
          <mxGeometry width="50" height="50" relative="1" as="geometry">
            <mxPoint x="830" y="535" as="sourcePoint" />
            <mxPoint x="880" y="485" as="targetPoint" />
          </mxGeometry>
        </mxCell>
        <mxCell id="9O0J8Gs0uglvmjFiros7-37" value="" style="endArrow=classic;html=1;rounded=0;entryX=0;entryY=0.5;entryDx=0;entryDy=0;exitX=1;exitY=0.5;exitDx=0;exitDy=0;" edge="1" source="9O0J8Gs0uglvmjFiros7-33" target="9O0J8Gs0uglvmjFiros7-35" parent="1">
          <mxGeometry width="50" height="50" relative="1" as="geometry">
            <mxPoint x="830" y="535" as="sourcePoint" />
            <mxPoint x="950" y="575" as="targetPoint" />
          </mxGeometry>
        </mxCell>
        <mxCell id="9O0J8Gs0uglvmjFiros7-38" value="" style="endArrow=classic;html=1;rounded=0;exitX=1;exitY=0.5;exitDx=0;exitDy=0;entryX=0.013;entryY=0.613;entryDx=0;entryDy=0;entryPerimeter=0;" edge="1" parent="1" source="9O0J8Gs0uglvmjFiros7-26" target="9O0J8Gs0uglvmjFiros7-33">
          <mxGeometry width="50" height="50" relative="1" as="geometry">
            <mxPoint x="750" y="370" as="sourcePoint" />
            <mxPoint x="800" y="320" as="targetPoint" />
          </mxGeometry>
        </mxCell>
        <mxCell id="9O0J8Gs0uglvmjFiros7-39" value="" style="endArrow=classic;html=1;rounded=0;exitX=1;exitY=0.5;exitDx=0;exitDy=0;entryX=0;entryY=0.5;entryDx=0;entryDy=0;" edge="1" parent="1" source="9O0J8Gs0uglvmjFiros7-21" target="9O0J8Gs0uglvmjFiros7-26">
          <mxGeometry width="50" height="50" relative="1" as="geometry">
            <mxPoint x="525" y="180" as="sourcePoint" />
            <mxPoint x="575" y="130" as="targetPoint" />
          </mxGeometry>
        </mxCell>
        <mxCell id="9O0J8Gs0uglvmjFiros7-40" value="" style="endArrow=classic;html=1;rounded=0;exitX=1;exitY=0.5;exitDx=0;exitDy=0;entryX=0;entryY=0.5;entryDx=0;entryDy=0;" edge="1" parent="1" source="9O0J8Gs0uglvmjFiros7-22" target="9O0J8Gs0uglvmjFiros7-26">
          <mxGeometry width="50" height="50" relative="1" as="geometry">
            <mxPoint x="480" y="460" as="sourcePoint" />
            <mxPoint x="530" y="410" as="targetPoint" />
          </mxGeometry>
        </mxCell>
      </root>
    </mxGraphModel>
  </diagram>
</mxfile>
